<svg version="1.2" xmlns="http://www.w3.org/2000/svg" viewBox="0 0 500 500" width="500" height="500">
	<title>pngwing</title>
	<style>
		.s0 { opacity: 1;fill: #000000 } 
	</style>
	<path id="Path 0" fill-rule="evenodd" class="s0" d="m249.5 49.1c108.6-0.1 157.8 0.2 162 1 3.3 0.6 8.9 2.5 12.5 4.1 4 1.9 9 5.5 12.8 9.2 4.3 4.2 7.4 8.3 9.7 13.1 1.9 3.8 3.9 9.9 4.4 13.5 0.7 4.3 1.1 58.4 1.1 160.5 0 103.5-0.4 156.1-1.1 160.5-0.6 3.6-2.4 9.3-4 12.8-1.6 3.4-5.5 9-8.7 12.4-4.2 4.5-8 7.4-13.3 10-4.1 2-10.1 4.1-13.4 4.7-4.1 0.8-54.8 1.1-161.5 1.1-135.2 0-156.4-0.2-162.5-1.6-3.8-0.8-9.5-2.8-12.5-4.4-3-1.6-8.1-5.6-11.3-8.7-3.1-3.2-7.1-8.3-8.7-11.3-1.6-3-3.6-8.6-4.4-12.5-1.4-6.1-1.6-27.4-1.6-163.5 0-137.6 0.2-157.3 1.6-163 0.8-3.6 2.8-9 4.4-12 1.6-3 5.6-8.1 8.7-11.3 3.2-3.1 8.5-7.1 11.8-8.9 3.3-1.7 8.7-3.7 12-4.4 4.7-1 39.9-1.3 162-1.3zm-119.1 74.1c-2.1 1.5-4.8 4-6 5.5-1.2 1.5-3.2 4.8-4.5 7.3-2 3.8-2.4 5.9-2.4 13.5 0 7.3 0.4 9.9 2.2 13.5 1.2 2.5 3.7 6.3 5.6 8.5 1.9 2.2 5.8 5.3 8.8 6.9 4.4 2.4 6.9 3.1 13.4 3.4 6.3 0.3 9.2 0 13.5-1.6 3.4-1.3 7.4-3.8 10.2-6.6 2.7-2.5 6-7.2 7.5-10.3 2.3-4.9 2.8-7.1 2.8-13.8 0-5.9-0.6-9.2-2.1-12.5-1.1-2.5-4-6.7-6.5-9.4-2.4-2.6-6.7-6-9.4-7.4-3.8-2-6.9-2.6-13-2.9-6-0.2-9 0.1-12.1 1.4-2.3 1-5.9 3-8 4.5zm160.1 84.2c-3.9 1.9-9.7 5.9-13 8.9-3.3 3-7.1 7-8.5 9-1.4 2-2.8 3.7-3.3 3.7-0.4 0-0.7-5.2-0.7-11.5v-11.5h-52v178h52c0.6-102.7 0.7-104.7 2.7-111 1.2-3.6 3.7-8.5 5.6-11 1.9-2.5 5.6-5.7 8.3-7.2 2.7-1.4 7.6-3.1 10.9-3.7 4.2-0.8 7.8-0.8 12-0.1 3.3 0.6 7.8 2 10 3.3 2.1 1.2 5.4 4.2 7.3 6.7 1.8 2.5 4.1 6.8 5 9.5 1.4 4.4 1.7 12 1.9 59.3l0.3 54.2h55c-0.6-128.6-0.6-129.6-2.8-137.5-1.3-4.4-3.9-11.2-6-15-2.2-4.3-6.2-9.6-10.2-13.5-3.6-3.6-9.2-8-12.5-9.7-3.3-1.8-9.6-4.1-14-5.3-5.9-1.5-11-2-19-1.9-6.1 0-13.4 0.7-16.5 1.5-3 0.8-8.6 3-12.5 4.8zm-168.5 176.6h55v-178h-55z"/>
</svg>