<svg version="1.2" xmlns="http://www.w3.org/2000/svg" viewBox="0 0 840 879" width="840" height="879">
	<title>223953_mail-icon-png</title>
	<style>
		.s0 { fill: #f49021 } 
	</style>
	<path id="Path 0" fill-rule="evenodd" class="s0" d="m425 40.6c27.7 0.3 37.3 0.8 48.5 2.4 7.7 1.1 17.4 2.7 21.5 3.6 4.1 0.8 14 3.1 22 5 8 1.9 21.9 6 31 9.1 9.1 3 19.6 6.8 23.5 8.3 3.9 1.5 12 5.2 18 8.1 6 2.9 16 7.9 22 11.2 6 3.3 16.6 9.6 23.5 14 6.9 4.3 16.3 10.6 21 14 4.7 3.4 13.5 10.3 19.5 15.3 6 5.1 18.9 17.2 28.6 27 9.6 9.9 20.9 22 25.1 26.9 4.1 4.9 9.9 12.4 13 16.5 3 4.1 9 12.9 13.3 19.5 4.3 6.6 10.8 17.4 14.5 24 3.7 6.6 9.9 18.8 13.8 27 3.8 8.3 9 20.6 11.5 27.5 2.4 6.9 6.1 17.9 8 24.5 2 6.6 5 17.6 6.7 24.5 1.6 6.9 4.1 19.7 5.5 28.5 1.4 8.8 2.9 22.5 3.5 30.5 0.5 8 1 23.9 1 35.5 0 12-0.7 27.5-1.5 36-0.9 8.3-2.3 19.3-3.1 24.5-0.8 5.2-3 16.3-5 24.5-1.9 8.3-5.3 21.1-7.5 28.5-2.2 7.4-7 20.9-10.6 30-3.6 9.1-10.1 23.7-14.5 32.5-4.4 8.8-9.7 18.9-11.8 22.5-2.1 3.6-7.8 12.4-12.7 19.7-4.8 7.2-13.1 18.7-18.3 25.5-5.2 6.7-17.8 20.8-28 31.2-10.2 10.4-24.1 23.6-31 29.3-6.9 5.8-16.8 13.5-22 17.3-5.2 3.7-14.5 9.9-20.5 13.7-6 3.8-16 9.7-22 13.1-6 3.4-17.8 9.1-26 12.8-8.3 3.6-19.7 8.4-25.5 10.6-5.8 2.2-14.8 5.3-20 6.9-5.2 1.7-16.7 4.7-25.5 6.9-8.8 2.2-21.6 4.8-28.5 5.9-6.9 1.1-17.2 2.6-23 3.3-7 0.9-22.1 1.3-45 1.2-20.4 0-38.4-0.5-44-1.3-5.2-0.6-16.7-2.5-25.5-4.2-8.8-1.7-21.2-4.3-27.5-5.9-6.3-1.6-19.6-5.5-29.5-8.8-9.9-3.2-25.2-9.1-34-13.2-8.8-4-21.4-10.2-28-13.7-6.6-3.6-16.7-9.5-22.5-13.1-5.8-3.6-15.2-10-21-14.1-5.8-4.1-15-11.2-20.5-15.9-5.5-4.6-17.1-15.4-25.9-24-8.7-8.6-18.6-18.8-22.1-22.7-3.4-3.9-9.7-11.5-14-17-4.3-5.5-11-14.7-14.8-20.5-3.9-5.8-10.2-15.7-13.9-22-3.8-6.3-10.5-18.9-15-28-4.4-9.1-10-21.5-12.3-27.5-2.4-6-6.1-16.9-8.4-24-2.3-7.1-5.5-18.2-7.1-24.5-1.6-6.3-4.2-18.7-5.9-27.5-1.7-8.8-3.6-20.3-4.3-25.5-0.8-5.9-1.2-23-1.3-45.5 0-32.2 0.3-37.8 2.3-52.5 1.3-9.1 3-19.9 3.8-24 0.9-4.1 2.6-12.2 4-18 1.3-5.8 4.5-17 7-25 2.5-8 7.2-21.3 10.5-29.5 3.2-8.3 9.6-22.4 14.1-31.5 4.6-9.1 12.4-23 17.3-30.8 5-7.9 13.3-20.1 18.5-27.1 5.2-7 12.9-16.7 17.1-21.6 4.2-5 13.2-14.6 20-21.4 6.8-6.9 18.2-17.6 25.4-23.8 7.2-6.3 18.2-15.1 24.5-19.6 6.3-4.5 17.6-12 25-16.6 7.4-4.6 19.8-11.7 27.5-15.6 7.7-3.9 19.4-9.4 26-12.2 6.6-2.8 20.1-7.8 30-11.2 9.9-3.3 25.6-7.9 35-10 9.4-2.2 21.3-4.6 26.5-5.4 5.2-0.9 14-2 19.5-2.6 5.5-0.6 11.4-1.3 13-1.5 1.6-0.3 18.5-0.3 37.5 0zm-256 229.1c-3 1.2-8.4 4.1-11.9 6.5-4.2 2.8-7.9 6.4-10.6 10.3-2.4 3.3-5.2 7.9-6.4 10.3l-2.1 4.2v278.5c6.8 11.6 10.9 17.1 13.6 19.6 2.7 2.5 7.1 5.7 9.9 7.1 2.7 1.4 7.9 3.5 11.5 4.7l6.5 2.2 484-0.6c10.1-3.7 15.2-6.2 18-7.9 2.7-1.8 7.4-5.9 10.3-9.2 3-3.2 6.6-8.4 8-11.4l2.6-5.5c0.9-95.3 0.9-157.6 0.6-200l-0.5-77c-4.2-10.5-6.6-13.8-11.9-19.1-5.3-5.2-9.2-8.1-15.1-11l-8-3.9c-60.5-1.1-157-1.4-253.5-1.2-96.5 0.1-189.9 0.4-207.5 0.7-29.8 0.5-32.4 0.7-37.5 2.7zm251 29.3c179.8 0 226.1 0.3 226.6 1.3 0.4 0.7-0.6 2.3-2.3 3.7-1.7 1.4-22.8 19.8-46.9 41-24.2 21.1-52.4 45.9-62.9 55.1-10.5 9.1-36.3 31.8-57.5 50.3-21.2 18.6-40.5 35-43 36.6-2.5 1.7-6.5 3.2-9 3.6-2.5 0.3-6.5 0.3-9-0.1-2.5-0.4-6.5-1.9-9-3.3-2.5-1.4-11.9-9.1-21-17.1-9.1-7.9-18.5-16.3-21-18.5-2.5-2.3-28.6-25-57.9-50.6-29.4-25.6-66.8-58.3-83.2-72.7-16.5-14.5-29.9-27-29.9-27.8 0-1.3 25.8-1.5 226-1.5zm-248.9 35c0.5 0 8.7 6.6 18.2 14.8 9.4 8.1 35.1 30.4 57 49.5 21.8 19.1 39.9 35.3 40.3 36 0.3 0.7-12.7 14.5-31.3 33.1-17.5 17.6-43.4 43.5-57.6 57.5-15.9 15.7-26.2 25.2-26.7 24.6-0.4-0.5-1.2-35.9-1.5-78.5-0.4-42.6-0.4-90.9 0-107.2 0.4-16.4 1.1-29.8 1.6-29.8zm498.7 0c1 0 1.2 21.3 1 106.9-0.2 58.8-0.6 107.3-1 107.8-0.4 0.4-2.4-0.6-4.5-2.2-2.1-1.6-27.1-26.3-55.5-54.7-28.5-28.5-52.5-52.9-53.3-54.3-0.8-1.4-1.3-3.2-1-4 0.3-0.8 15-14.3 32.8-29.8 17.7-15.6 41.2-36.2 52.2-45.8 11-9.6 21.8-18.9 24-20.7 2.2-1.8 4.6-3.2 5.3-3.2zm-145.5 127c0.4 0 26.8 26.2 58.7 58.3 31.9 32 58 58.5 58 59 0 0.4-1 0.9-2.2 1.2-1.3 0.3-91.6 0.7-200.8 1-109.2 0.4-207.2 0.2-217.9-0.2-14.2-0.6-19.5-1.1-19.8-2-0.2-0.7 17.4-19.1 39-40.9 21.5-21.8 47.6-47.7 58-57.5 10.3-9.9 19.4-17.9 20.2-17.9 0.8 0 14 10.9 29.3 24.3 15.2 13.3 30.2 26.2 33.2 28.6 3 2.4 8.1 5.6 11.3 7.2 3.1 1.6 9.2 3.9 13.5 5 6.5 1.8 9.4 2.1 18.2 1.6 6.2-0.3 13.1-1.4 17-2.6 3.6-1.1 9.4-3.7 12.8-5.8 3.5-2.1 17-13 30-24.3 12.9-11.3 27.4-23.8 32.1-27.7 4.7-4 8.9-7.3 9.4-7.3z"/>
</svg>